<svg width="640" height="508" viewBox="0 0 640 508" fill="none" xmlns="http://www.w3.org/2000/svg">
<rect x="0.5" y="0.5" width="639" height="507" rx="4.5" stroke="#9747FF" stroke-dasharray="10 5"/>
<rect width="600" height="72" transform="translate(20 20)" fill="#FF8AC4"/>
<path d="M42 60H78M42 48H78M42 72H78" stroke="#140005" stroke-width="4" stroke-linecap="round" stroke-linejoin="round"/>
<rect width="72" height="40" transform="translate(284 36)" fill="#FF8AC4"/>
<path d="M295.763 48.1V64.732H304.2V61.2544H306.317V67H290.26V64.732H293.193V48.1605C290.713 48.3218 288.959 48.735 287.931 49.4003C286.923 50.0656 286.419 51.0333 286.419 52.3034C286.419 52.9082 286.55 53.4122 286.812 53.8154C287.074 54.1984 287.457 54.3899 287.961 54.3899C288.909 54.3899 289.383 53.5936 289.383 52.001H291.802C291.802 53.3114 291.5 54.4202 290.895 55.3274C290.29 56.2144 289.312 56.6579 287.961 56.6579C286.611 56.6579 285.613 56.2346 284.968 55.3878C284.323 54.5411 284 53.513 284 52.3034C284 50.4083 284.847 48.856 286.54 47.6464C288.234 46.4368 290.895 45.832 294.524 45.832H298.394V48.1H295.763ZM310.057 65.0949C308.787 63.603 308.152 61.7181 308.152 59.44C308.152 57.1619 308.787 55.287 310.057 53.8154C311.327 52.3235 313.111 51.5776 315.409 51.5776C317.708 51.5776 319.492 52.3235 320.762 53.8154C322.032 55.287 322.667 57.1619 322.667 59.44C322.667 61.7181 322.032 63.603 320.762 65.0949C319.492 66.5666 317.708 67.3024 315.409 67.3024C313.111 67.3024 311.327 66.5666 310.057 65.0949ZM311.962 55.4181C311.136 56.4664 310.722 57.807 310.722 59.44C310.722 61.073 311.136 62.4136 311.962 63.4619C312.789 64.5102 313.938 65.0344 315.409 65.0344C316.881 65.0344 318.03 64.5102 318.857 63.4619C319.683 62.4136 320.097 61.073 320.097 59.44C320.097 57.807 319.683 56.4664 318.857 55.4181C318.03 54.3698 316.881 53.8456 315.409 53.8456C313.938 53.8456 312.789 54.3698 311.962 55.4181ZM333.699 64.7018C335.251 64.8832 336.44 65.3469 337.267 66.0928C338.114 66.8186 338.537 67.8165 338.537 69.0866C338.537 70.3768 337.852 71.4755 336.481 72.3827C335.13 73.3101 333.195 73.7738 330.675 73.7738C328.86 73.7738 327.449 73.3403 326.441 72.4734C325.433 71.6267 324.929 70.4978 324.929 69.0866C324.929 67.6955 325.665 66.5867 327.137 65.7602C325.746 65.3368 325.05 64.5506 325.05 63.4014C325.05 62.2523 325.675 61.4661 326.925 61.0427C325.796 60.0347 325.232 58.7243 325.232 57.1115C325.232 55.4786 325.756 54.148 326.804 53.1198C327.872 52.0917 329.364 51.5776 331.28 51.5776C332.469 51.5776 333.527 51.7994 334.455 52.2429H339.535V54.4202H336.692C337.116 55.2064 337.328 56.0733 337.328 57.0208C337.328 58.5933 336.793 59.8936 335.725 60.9218C334.676 61.9499 333.195 62.464 331.28 62.464H328.679C327.973 62.464 327.62 62.7362 327.62 63.2805C327.62 63.724 327.973 63.9962 328.679 64.097L333.699 64.7018ZM331.28 53.8456C330.191 53.8456 329.334 54.148 328.709 54.7528C328.104 55.3576 327.802 56.1237 327.802 57.051C327.802 57.9582 328.104 58.7142 328.709 59.319C329.334 59.9037 330.191 60.196 331.28 60.196C332.368 60.196 333.215 59.9037 333.82 59.319C334.445 58.7142 334.757 57.9582 334.757 57.051C334.757 56.1237 334.445 55.3576 333.82 54.7528C333.215 54.148 332.368 53.8456 331.28 53.8456ZM329.979 66.5464C329.274 66.7077 328.679 67.0504 328.195 67.5746C327.731 68.0987 327.5 68.6632 327.5 69.268C327.5 69.893 327.782 70.4171 328.346 70.8405C328.911 71.284 329.687 71.5058 330.675 71.5058C332.288 71.5058 333.568 71.2538 334.515 70.7498C335.483 70.2659 335.967 69.6611 335.967 68.9354C335.967 67.8064 335.211 67.1512 333.699 66.9698L329.979 66.5464ZM342.069 65.0949C340.799 63.603 340.164 61.7181 340.164 59.44C340.164 57.1619 340.799 55.287 342.069 53.8154C343.339 52.3235 345.123 51.5776 347.421 51.5776C349.72 51.5776 351.504 52.3235 352.774 53.8154C354.044 55.287 354.679 57.1619 354.679 59.44C354.679 61.7181 354.044 63.603 352.774 65.0949C351.504 66.5666 349.72 67.3024 347.421 67.3024C345.123 67.3024 343.339 66.5666 342.069 65.0949ZM343.974 55.4181C343.147 56.4664 342.734 57.807 342.734 59.44C342.734 61.073 343.147 62.4136 343.974 63.4619C344.801 64.5102 345.95 65.0344 347.421 65.0344C348.893 65.0344 350.042 64.5102 350.869 63.4619C351.695 62.4136 352.109 61.073 352.109 59.44C352.109 57.807 351.695 56.4664 350.869 55.4181C350.042 54.3698 348.893 53.8456 347.421 53.8456C345.95 53.8456 344.801 54.3698 343.974 55.4181Z" fill="#140005"/>
<rect width="600" height="50" transform="translate(20 112)" fill="#FF0080"/>
<path d="M56 155L56 119M44 155L44 119M68 155V119" stroke="#140005" stroke-width="4" stroke-linecap="round" stroke-linejoin="round"/>
<rect width="83" height="38" transform="translate(279 118)" fill="#FF0080"/>
<path d="M290.763 130.1V146.732H299.2V143.254H301.317V149H285.26V146.732H288.193V130.16C285.713 130.322 283.959 130.735 282.931 131.4C281.923 132.066 281.419 133.033 281.419 134.303C281.419 134.908 281.55 135.412 281.812 135.815C282.074 136.198 282.457 136.39 282.961 136.39C283.909 136.39 284.383 135.594 284.383 134.001H286.802C286.802 135.311 286.5 136.42 285.895 137.327C285.29 138.214 284.312 138.658 282.961 138.658C281.611 138.658 280.613 138.235 279.968 137.388C279.323 136.541 279 135.513 279 134.303C279 132.408 279.847 130.856 281.54 129.646C283.234 128.437 285.895 127.832 289.524 127.832H293.394V130.1H290.763ZM305.057 147.095C303.787 145.603 303.152 143.718 303.152 141.44C303.152 139.162 303.787 137.287 305.057 135.815C306.327 134.324 308.111 133.578 310.409 133.578C312.708 133.578 314.492 134.324 315.762 135.815C317.032 137.287 317.667 139.162 317.667 141.44C317.667 143.718 317.032 145.603 315.762 147.095C314.492 148.567 312.708 149.302 310.409 149.302C308.111 149.302 306.327 148.567 305.057 147.095ZM306.962 137.418C306.136 138.466 305.722 139.807 305.722 141.44C305.722 143.073 306.136 144.414 306.962 145.462C307.789 146.51 308.938 147.034 310.409 147.034C311.881 147.034 313.03 146.51 313.857 145.462C314.683 144.414 315.097 143.073 315.097 141.44C315.097 139.807 314.683 138.466 313.857 137.418C313.03 136.37 311.881 135.846 310.409 135.846C308.938 135.846 307.789 136.37 306.962 137.418ZM328.699 146.702C330.251 146.883 331.44 147.347 332.267 148.093C333.114 148.819 333.537 149.816 333.537 151.087C333.537 152.377 332.852 153.476 331.481 154.383C330.13 155.31 328.195 155.774 325.675 155.774C323.86 155.774 322.449 155.34 321.441 154.473C320.433 153.627 319.929 152.498 319.929 151.087C319.929 149.696 320.665 148.587 322.137 147.76C320.746 147.337 320.05 146.551 320.05 145.401C320.05 144.252 320.675 143.466 321.925 143.043C320.796 142.035 320.232 140.724 320.232 139.112C320.232 137.479 320.756 136.148 321.804 135.12C322.872 134.092 324.364 133.578 326.28 133.578C327.469 133.578 328.527 133.799 329.455 134.243H334.535V136.42H331.692C332.116 137.206 332.328 138.073 332.328 139.021C332.328 140.593 331.793 141.894 330.725 142.922C329.676 143.95 328.195 144.464 326.28 144.464H323.679C322.973 144.464 322.62 144.736 322.62 145.28C322.62 145.724 322.973 145.996 323.679 146.097L328.699 146.702ZM326.28 135.846C325.191 135.846 324.334 136.148 323.709 136.753C323.104 137.358 322.802 138.124 322.802 139.051C322.802 139.958 323.104 140.714 323.709 141.319C324.334 141.904 325.191 142.196 326.28 142.196C327.368 142.196 328.215 141.904 328.82 141.319C329.445 140.714 329.757 139.958 329.757 139.051C329.757 138.124 329.445 137.358 328.82 136.753C328.215 136.148 327.368 135.846 326.28 135.846ZM324.979 148.546C324.274 148.708 323.679 149.05 323.195 149.575C322.731 150.099 322.5 150.663 322.5 151.268C322.5 151.893 322.782 152.417 323.346 152.84C323.911 153.284 324.687 153.506 325.675 153.506C327.288 153.506 328.568 153.254 329.515 152.75C330.483 152.266 330.967 151.661 330.967 150.935C330.967 149.806 330.211 149.151 328.699 148.97L324.979 148.546ZM337.069 147.095C335.799 145.603 335.164 143.718 335.164 141.44C335.164 139.162 335.799 137.287 337.069 135.815C338.339 134.324 340.123 133.578 342.421 133.578C344.72 133.578 346.504 134.324 347.774 135.815C349.044 137.287 349.679 139.162 349.679 141.44C349.679 143.718 349.044 145.603 347.774 147.095C346.504 148.567 344.72 149.302 342.421 149.302C340.123 149.302 338.339 148.567 337.069 147.095ZM338.974 137.418C338.147 138.466 337.734 139.807 337.734 141.44C337.734 143.073 338.147 144.414 338.974 145.462C339.801 146.51 340.95 147.034 342.421 147.034C343.893 147.034 345.042 146.51 345.869 145.462C346.695 144.414 347.109 143.073 347.109 141.44C347.109 139.807 346.695 138.466 345.869 137.418C345.042 136.37 343.893 135.846 342.421 135.846C340.95 135.846 339.801 136.37 338.974 137.418Z" fill="#140005"/>
<rect width="600" height="72" transform="translate(20 162)" fill="#FF8AC4"/>
<path d="M292.263 190.1V197.116H302.182V190.1H299.551V187.832H307.686V190.1H304.752V206.732H307.686V209H299.551V206.732H302.182V199.384H292.263V206.732H294.894V209H286.76V206.732H289.693V190.16C287.213 190.322 285.459 190.735 284.431 191.4C283.423 192.066 282.919 193.033 282.919 194.303C282.919 194.908 283.05 195.412 283.312 195.815C283.574 196.198 283.957 196.39 284.461 196.39C285.409 196.39 285.883 195.594 285.883 194.001H288.302C288.302 195.311 288 196.42 287.395 197.327C286.79 198.214 285.812 198.658 284.461 198.658C283.111 198.658 282.113 198.235 281.468 197.388C280.823 196.541 280.5 195.513 280.5 194.303C280.5 192.328 281.437 190.755 283.312 189.586C285.187 188.417 288.171 187.832 292.263 187.832H294.894V190.1H292.263ZM309.982 195.876V193.91H314.881V208.244C314.881 210.522 314.337 212.347 313.248 213.717C312.18 215.108 310.496 215.804 308.198 215.804V213.566C309.609 213.566 310.648 213.123 311.313 212.236C311.978 211.369 312.311 210.038 312.311 208.244V195.876H309.982ZM313.369 191.189C312.926 191.189 312.563 191.027 312.281 190.705C311.998 190.382 311.857 189.999 311.857 189.556C311.857 189.092 312.008 188.689 312.311 188.346C312.633 188.003 313.016 187.832 313.46 187.832C313.903 187.832 314.266 187.993 314.549 188.316C314.831 188.638 314.972 189.032 314.972 189.495C314.972 189.939 314.811 190.332 314.488 190.675C314.186 191.017 313.813 191.189 313.369 191.189ZM331.304 200.412V202.015H320.629C320.73 203.486 321.164 204.696 321.93 205.643C322.696 206.571 323.724 207.034 325.014 207.034C325.861 207.034 326.617 206.944 327.282 206.762C327.968 206.581 328.441 206.42 328.704 206.278C328.966 206.117 329.328 205.885 329.792 205.583L330.911 207.276C329.379 208.627 327.464 209.302 325.165 209.302C322.867 209.302 321.103 208.567 319.873 207.095C318.664 205.603 318.059 203.718 318.059 201.44C318.059 199.162 318.664 197.287 319.873 195.815C321.103 194.324 322.766 193.578 324.863 193.578C326.98 193.578 328.583 194.213 329.671 195.483C330.76 196.753 331.304 198.396 331.304 200.412ZM328.734 199.868C328.613 198.638 328.24 197.66 327.615 196.934C327.01 196.208 326.133 195.846 324.984 195.846C323.855 195.846 322.928 196.219 322.202 196.964C321.476 197.69 320.992 198.658 320.75 199.868H328.734ZM342.37 209V207.034H344.698V199.384C344.698 198.214 344.547 197.337 344.245 196.753C343.942 196.148 343.247 195.846 342.158 195.846C341.09 195.846 339.608 196.35 337.713 197.358V207.034H340.041V209H332.814V207.034H335.142V195.846H332.814V193.88H337.138L337.441 195.241C339.477 194.132 341.301 193.578 342.914 193.578C344.547 193.578 345.716 194.162 346.422 195.332C348.498 194.162 350.353 193.578 351.986 193.578C353.619 193.578 354.758 194.092 355.403 195.12C356.069 196.148 356.401 197.569 356.401 199.384V207.186H358.881V208.456C358.135 208.919 357.268 209.151 356.28 209.151C355.313 209.151 354.657 208.99 354.315 208.667C353.992 208.325 353.831 207.78 353.831 207.034V199.384C353.831 198.214 353.68 197.337 353.377 196.753C353.075 196.148 352.399 195.846 351.351 195.846C350.323 195.846 348.902 196.299 347.087 197.206C347.208 197.872 347.269 198.597 347.269 199.384V207.034H349.9V209H342.37Z" fill="#140005"/>
<mask id="path-7-inside-1_13_75189" fill="white">
<path d="M20 234H620V306H20V234Z"/>
</mask>
<path d="M20 234H620V306H20V234Z" fill="#FF8AC4"/>
<path d="M20 234V235H620V234V233H20V234Z" fill="#75003A" mask="url(#path-7-inside-1_13_75189)"/>
<path d="M281.481 267.694C281.481 269.005 281.178 270.114 280.574 271.021C279.969 271.908 278.991 272.351 277.64 272.351C276.29 272.351 275.292 271.928 274.647 271.081C274.001 270.235 273.679 269.206 273.679 267.997C273.679 266.344 274.243 265.003 275.372 263.975C276.501 262.927 277.822 262.402 279.334 262.402C280.785 262.402 282.116 262.947 283.325 264.035C283.95 264.6 284.454 265.426 284.837 266.515C285.22 267.604 285.412 268.884 285.412 270.356C285.412 273.561 284.545 276.192 282.811 278.248C281.078 280.284 278.719 281.302 275.735 281.302C272.752 281.302 270.393 280.284 268.659 278.248C266.925 276.192 266.058 273.581 266.058 270.416C266.058 267.251 266.925 264.65 268.659 262.614C270.393 260.558 272.752 259.53 275.735 259.53V261.798C273.639 261.798 271.955 262.614 270.685 264.247C269.415 265.86 268.78 267.916 268.78 270.416C268.78 272.916 269.415 274.982 270.685 276.615C271.955 278.228 273.639 279.034 275.735 279.034C277.832 279.034 279.515 278.228 280.785 276.615C282.055 274.982 282.69 273.017 282.69 270.718C282.69 268.4 282.358 266.817 281.692 265.971C281.027 265.104 280.251 264.67 279.364 264.67C278.477 264.67 277.711 264.983 277.066 265.608C276.421 266.233 276.098 267.029 276.098 267.997C276.098 268.602 276.229 269.106 276.491 269.509C276.753 269.892 277.136 270.083 277.64 270.083C278.588 270.083 279.062 269.287 279.062 267.694H281.481ZM296.63 281V279.034H298.958V271.384C298.958 270.214 298.807 269.337 298.505 268.753C298.202 268.148 297.507 267.846 296.418 267.846C295.35 267.846 293.868 268.35 291.973 269.358V279.034H294.301V281H287.074V279.034H289.402V267.846H287.074V265.88H291.398L291.701 267.241C293.737 266.132 295.561 265.578 297.174 265.578C298.807 265.578 299.976 266.162 300.682 267.332C302.758 266.162 304.613 265.578 306.246 265.578C307.879 265.578 309.018 266.092 309.663 267.12C310.329 268.148 310.661 269.569 310.661 271.384V279.186H313.141V280.456C312.395 280.919 311.528 281.151 310.54 281.151C309.573 281.151 308.917 280.99 308.575 280.667C308.252 280.325 308.091 279.78 308.091 279.034V271.384C308.091 270.214 307.94 269.337 307.637 268.753C307.335 268.148 306.659 267.846 305.611 267.846C304.583 267.846 303.162 268.299 301.347 269.206C301.468 269.872 301.529 270.597 301.529 271.384V279.034H304.16V281H296.63ZM332.953 281V279.034H335.282V271.384C335.282 270.214 335.131 269.337 334.828 268.753C334.526 268.148 333.83 267.846 332.742 267.846C331.673 267.846 330.191 268.35 328.296 269.358V279.034H330.625V281H323.397V279.034H325.726V267.846H323.397V265.88H327.722L328.024 267.241C330.06 266.132 331.885 265.578 333.498 265.578C335.131 265.578 336.3 266.162 337.005 267.332C339.082 266.162 340.937 265.578 342.57 265.578C344.203 265.578 345.342 266.092 345.987 267.12C346.652 268.148 346.985 269.569 346.985 271.384V279.186H349.464V280.456C348.718 280.919 347.852 281.151 346.864 281.151C345.896 281.151 345.241 280.99 344.898 280.667C344.576 280.325 344.414 279.78 344.414 279.034V271.384C344.414 270.214 344.263 269.337 343.961 268.753C343.658 268.148 342.983 267.846 341.935 267.846C340.906 267.846 339.485 268.299 337.671 269.206C337.792 269.872 337.852 270.597 337.852 271.384V279.034H340.483V281H332.953ZM350.995 267.846V265.88H355.893V279.034H358.524V281H350.964V279.034H353.323V267.846H350.995ZM354.533 263.189C354.089 263.189 353.726 263.027 353.444 262.705C353.162 262.382 353.021 261.999 353.021 261.556C353.021 261.092 353.172 260.689 353.474 260.346C353.797 260.003 354.18 259.832 354.623 259.832C355.067 259.832 355.43 259.993 355.712 260.316C355.994 260.638 356.135 261.032 356.135 261.495C356.135 261.939 355.974 262.332 355.651 262.675C355.349 263.017 354.976 263.189 354.533 263.189ZM369.272 278.702C370.825 278.883 372.014 279.347 372.841 280.093C373.688 280.819 374.111 281.816 374.111 283.087C374.111 284.377 373.425 285.476 372.055 286.383C370.704 287.31 368.768 287.774 366.248 287.774C364.434 287.774 363.023 287.34 362.015 286.473C361.007 285.627 360.503 284.498 360.503 283.087C360.503 281.696 361.239 280.587 362.71 279.76C361.319 279.337 360.624 278.551 360.624 277.401C360.624 276.252 361.249 275.466 362.499 275.043C361.37 274.035 360.805 272.724 360.805 271.112C360.805 269.479 361.329 268.148 362.378 267.12C363.446 266.092 364.938 265.578 366.853 265.578C368.043 265.578 369.101 265.799 370.028 266.243H375.109V268.42H372.266C372.69 269.206 372.901 270.073 372.901 271.021C372.901 272.593 372.367 273.894 371.299 274.922C370.25 275.95 368.768 276.464 366.853 276.464H364.253C363.547 276.464 363.194 276.736 363.194 277.28C363.194 277.724 363.547 277.996 364.253 278.097L369.272 278.702ZM366.853 267.846C365.765 267.846 364.908 268.148 364.283 268.753C363.678 269.358 363.376 270.124 363.376 271.051C363.376 271.958 363.678 272.714 364.283 273.319C364.908 273.904 365.765 274.196 366.853 274.196C367.942 274.196 368.789 273.904 369.393 273.319C370.018 272.714 370.331 271.958 370.331 271.051C370.331 270.124 370.018 269.358 369.393 268.753C368.789 268.148 367.942 267.846 366.853 267.846ZM365.553 280.546C364.847 280.708 364.253 281.05 363.769 281.575C363.305 282.099 363.073 282.663 363.073 283.268C363.073 283.893 363.356 284.417 363.92 284.84C364.484 285.284 365.261 285.506 366.248 285.506C367.861 285.506 369.141 285.254 370.089 284.75C371.057 284.266 371.54 283.661 371.54 282.935C371.54 281.806 370.784 281.151 369.272 280.97L365.553 280.546Z" fill="#140005"/>
<mask id="path-10-inside-2_13_75189" fill="white">
<path d="M20 306H620V378H20V306Z"/>
</mask>
<path d="M20 306H620V378H20V306Z" fill="#FF8AC4"/>
<path d="M20 306V307H620V306V305H20V306ZM620 378V377H20V378V379H620V378Z" fill="#75003A" mask="url(#path-10-inside-2_13_75189)"/>
<path d="M265.263 350.732H268.801V353H259.76V350.732H262.693V333.888C260.233 334.07 258.49 334.503 257.461 335.189C256.433 335.874 255.919 336.812 255.919 338.001C255.919 338.606 256.05 339.11 256.312 339.513C256.574 339.896 256.957 340.088 257.461 340.088C258.409 340.088 258.883 339.291 258.883 337.699H261.302C261.302 339.009 261 340.118 260.395 341.025C259.79 341.912 258.812 342.356 257.461 342.356C256.111 342.356 255.113 341.932 254.468 341.085C253.823 340.239 253.5 339.211 253.5 338.001C253.5 336.025 254.437 334.453 256.312 333.284C258.187 332.114 261.05 331.53 264.9 331.53C268.751 331.53 271.553 332.175 273.307 333.465C275.061 334.735 275.938 336.428 275.938 338.545C275.938 340.642 275.293 342.285 274.003 343.474C272.733 344.644 271.12 345.228 269.164 345.228C267.652 345.228 266.352 344.996 265.263 344.533V350.732ZM265.263 333.798V342.295C266.211 342.739 267.511 342.96 269.164 342.96C270.313 342.96 271.301 342.557 272.128 341.751C272.954 340.924 273.368 339.876 273.368 338.606C273.368 337.053 272.743 335.864 271.493 335.037C270.243 334.211 268.166 333.798 265.263 333.798ZM282.511 351.034H285.141V353H277.612V351.034H279.94V339.846H277.612V337.88H281.936L282.299 339.483C282.984 339.1 283.539 338.807 283.962 338.606C284.385 338.384 284.99 338.162 285.776 337.94C286.583 337.699 287.359 337.578 288.105 337.578L289.798 338.031L289.103 340.511L287.742 340.148C286.049 340.148 284.305 340.571 282.511 341.418V351.034ZM292.698 351.095C291.428 349.603 290.793 347.718 290.793 345.44C290.793 343.162 291.428 341.287 292.698 339.815C293.968 338.324 295.753 337.578 298.051 337.578C300.349 337.578 302.133 338.324 303.403 339.815C304.673 341.287 305.308 343.162 305.308 345.44C305.308 347.718 304.673 349.603 303.403 351.095C302.133 352.567 300.349 353.302 298.051 353.302C295.753 353.302 293.968 352.567 292.698 351.095ZM294.603 341.418C293.777 342.466 293.364 343.807 293.364 345.44C293.364 347.073 293.777 348.414 294.603 349.462C295.43 350.51 296.579 351.034 298.051 351.034C299.523 351.034 300.672 350.51 301.498 349.462C302.325 348.414 302.738 347.073 302.738 345.44C302.738 343.807 302.325 342.466 301.498 341.418C300.672 340.37 299.523 339.846 298.051 339.846C296.579 339.846 295.43 340.37 294.603 341.418ZM308.054 339.876V337.91H312.953V352.244C312.953 354.522 312.409 356.347 311.32 357.717C310.252 359.108 308.568 359.804 306.27 359.804V357.566C307.681 357.566 308.72 357.123 309.385 356.236C310.05 355.369 310.383 354.038 310.383 352.244V339.876H308.054ZM311.441 335.189C310.998 335.189 310.635 335.027 310.353 334.705C310.07 334.382 309.929 333.999 309.929 333.556C309.929 333.092 310.08 332.689 310.383 332.346C310.705 332.003 311.088 331.832 311.532 331.832C311.975 331.832 312.338 331.993 312.621 332.316C312.903 332.638 313.044 333.032 313.044 333.495C313.044 333.939 312.883 334.332 312.56 334.675C312.258 335.017 311.885 335.189 311.441 335.189ZM329.376 344.412V346.015H318.701C318.802 347.486 319.236 348.696 320.002 349.643C320.768 350.571 321.796 351.034 323.086 351.034C323.933 351.034 324.689 350.944 325.354 350.762C326.04 350.581 326.513 350.42 326.776 350.278C327.038 350.117 327.4 349.885 327.864 349.583L328.983 351.276C327.451 352.627 325.536 353.302 323.237 353.302C320.939 353.302 319.175 352.567 317.945 351.095C316.736 349.603 316.131 347.718 316.131 345.44C316.131 343.162 316.736 341.287 317.945 339.815C319.175 338.324 320.838 337.578 322.935 337.578C325.052 337.578 326.655 338.213 327.743 339.483C328.832 340.753 329.376 342.396 329.376 344.412ZM326.806 343.868C326.685 342.638 326.312 341.66 325.687 340.934C325.082 340.208 324.205 339.846 323.056 339.846C321.927 339.846 321 340.219 320.274 340.964C319.548 341.69 319.064 342.658 318.822 343.868H326.806ZM335.483 351.034H337.811V353H330.584V351.034H332.912V332.286H330.584V330.32H335.483V344.503L337.327 343.837L340.895 339.846H339.777V337.88H345.462V339.846H344.161L339.383 345.047L344.192 351.186H346.49V352.456C346.046 352.718 345.653 352.899 345.311 353C344.968 353.101 344.423 353.151 343.678 353.151C342.932 353.151 342.266 352.768 341.682 352.002L337.327 346.287L335.483 346.952V351.034ZM347.099 339.846V338.182L349.427 337.88H349.73C350.375 336.368 350.808 335.037 351.03 333.888H352.3V337.88H356.806V339.846H352.3V349.129C352.3 349.815 352.411 350.309 352.633 350.611C352.875 350.913 353.278 351.065 353.842 351.065C354.407 351.065 355.163 350.873 356.11 350.49L357.108 352.214C355.959 352.94 354.729 353.302 353.419 353.302C352.108 353.302 351.161 352.96 350.576 352.274C350.012 351.589 349.73 350.702 349.73 349.613V339.846H347.099ZM372.019 344.412V346.015H361.345C361.445 347.486 361.879 348.696 362.645 349.643C363.411 350.571 364.439 351.034 365.729 351.034C366.576 351.034 367.332 350.944 367.997 350.762C368.683 350.581 369.157 350.42 369.419 350.278C369.681 350.117 370.044 349.885 370.507 349.583L371.626 351.276C370.094 352.627 368.179 353.302 365.881 353.302C363.582 353.302 361.818 352.567 360.589 351.095C359.379 349.603 358.774 347.718 358.774 345.44C358.774 343.162 359.379 341.287 360.589 339.815C361.818 338.324 363.482 337.578 365.578 337.578C367.695 337.578 369.298 338.213 370.386 339.483C371.475 340.753 372.019 342.396 372.019 344.412ZM369.449 343.868C369.328 342.638 368.955 341.66 368.33 340.934C367.725 340.208 366.848 339.846 365.699 339.846C364.57 339.846 363.643 340.219 362.917 340.964C362.191 341.69 361.707 342.658 361.466 343.868H369.449ZM378.428 351.034H381.059V353H373.529V351.034H375.858V339.846H373.529V337.88H377.853L378.216 339.483C378.902 339.1 379.456 338.807 379.88 338.606C380.303 338.384 380.908 338.162 381.694 337.94C382.5 337.699 383.277 337.578 384.022 337.578L385.716 338.031L385.02 340.511L383.66 340.148C381.966 340.148 380.222 340.571 378.428 341.418V351.034Z" fill="#140005"/>
<rect width="600" height="72" transform="translate(20 378)" fill="#FF8AC4"/>
<path d="M255.767 420.766H258.035C258.035 422.319 257.641 423.468 256.855 424.214C256.069 424.96 255.071 425.333 253.861 425.333C252.672 425.333 251.704 425.06 250.958 424.516C250.233 423.972 249.497 423.014 248.751 421.643L245.424 415.626L242.763 416.835V422.732H245.697V425H240.193V406.16C237.713 406.322 235.959 406.735 234.931 407.4C233.923 408.066 233.419 409.033 233.419 410.303C233.419 410.908 233.55 411.412 233.812 411.815C234.074 412.198 234.457 412.39 234.961 412.39C235.909 412.39 236.383 411.594 236.383 410.001H238.802C238.802 411.311 238.5 412.42 237.895 413.327C237.29 414.214 236.312 414.658 234.961 414.658C233.611 414.658 232.613 414.235 231.968 413.388C231.323 412.541 231 411.513 231 410.303C231 408.408 231.847 406.856 233.54 405.646C235.234 404.437 237.895 403.832 241.524 403.832H245.394V406.1H242.763V414.235L245.001 413.206L250.837 406.1H249.386V403.832H256.25V406.1H253.982L247.36 413.902L251.14 420.766C251.644 421.593 252.077 422.188 252.44 422.551C252.823 422.893 253.277 423.065 253.801 423.065C254.325 423.065 254.779 422.863 255.162 422.46C255.565 422.036 255.767 421.472 255.767 420.766ZM237.26 425V422.732H240.193V425H237.26ZM260.955 423.095C259.685 421.603 259.05 419.718 259.05 417.44C259.05 415.162 259.685 413.287 260.955 411.815C262.225 410.324 264.009 409.578 266.308 409.578C268.606 409.578 270.39 410.324 271.66 411.815C272.93 413.287 273.565 415.162 273.565 417.44C273.565 419.718 272.93 421.603 271.66 423.095C270.39 424.567 268.606 425.302 266.308 425.302C264.009 425.302 262.225 424.567 260.955 423.095ZM262.86 413.418C262.034 414.466 261.62 415.807 261.62 417.44C261.62 419.073 262.034 420.414 262.86 421.462C263.687 422.51 264.836 423.034 266.308 423.034C267.779 423.034 268.928 422.51 269.755 421.462C270.581 420.414 270.995 419.073 270.995 417.44C270.995 415.807 270.581 414.466 269.755 413.418C268.928 412.37 267.779 411.846 266.308 411.846C264.836 411.846 263.687 412.37 262.86 413.418ZM280.121 423.034H282.752V425H275.222V423.034H277.551V411.846H275.222V409.88H279.547L279.91 411.483C280.595 411.1 281.149 410.807 281.573 410.606C281.996 410.384 282.601 410.162 283.387 409.94C284.194 409.699 284.97 409.578 285.716 409.578C287.449 409.578 288.639 410.092 289.284 411.12C289.949 412.148 290.282 413.569 290.282 415.384V423.186H292.762V424.456C292.016 424.919 291.149 425.151 290.161 425.151C289.193 425.151 288.538 424.99 288.195 424.667C287.873 424.325 287.712 423.78 287.712 423.034V415.384C287.712 414.214 287.56 413.337 287.258 412.753C286.956 412.148 286.26 411.846 285.171 411.846C284.083 411.846 282.399 412.45 280.121 413.66V423.034ZM293.679 411.846V410.182L296.008 409.88H296.31C296.955 408.368 297.389 407.037 297.611 405.888H298.881V409.88H303.387V411.846H298.881V421.129C298.881 421.815 298.992 422.309 299.213 422.611C299.455 422.913 299.859 423.065 300.423 423.065C300.987 423.065 301.743 422.873 302.691 422.49L303.689 424.214C302.54 424.94 301.31 425.302 300 425.302C298.689 425.302 297.742 424.96 297.157 424.274C296.593 423.589 296.31 422.702 296.31 421.613V411.846H293.679ZM309.649 425.302C308.258 425.302 307.169 424.909 306.383 424.123C305.597 423.317 305.204 422.248 305.204 420.918C305.204 419.567 305.728 418.438 306.776 417.531C307.825 416.624 309.377 416.17 311.433 416.17H314.729V414.628C314.729 412.773 313.842 411.846 312.068 411.846C310.576 411.846 309.206 412.027 307.956 412.39V414.416H305.839V410.817C306.746 410.434 307.814 410.132 309.044 409.91C310.294 409.688 311.332 409.578 312.159 409.578C313.772 409.578 315.032 410.041 315.939 410.969C316.846 411.876 317.3 413.096 317.3 414.628V423.186H319.779V424.456C319.034 424.919 318.177 425.151 317.209 425.151C316.241 425.151 315.586 424.99 315.243 424.667C314.901 424.345 314.729 423.8 314.729 423.034C313.217 424.546 311.524 425.302 309.649 425.302ZM309.921 423.034C311.655 423.034 313.258 422.057 314.729 420.101V418.166H311.403C310.173 418.166 309.256 418.408 308.651 418.892C308.066 419.375 307.774 419.99 307.774 420.736C307.774 421.462 307.956 422.026 308.318 422.43C308.681 422.833 309.216 423.034 309.921 423.034ZM325.297 423.034H327.626V425H320.398V423.034H322.727V404.286H320.398V402.32H325.297V416.503L327.142 415.837L330.71 411.846H329.591V409.88H335.276V411.846H333.976L329.198 417.047L334.006 423.186H336.304V424.456C335.861 424.718 335.468 424.899 335.125 425C334.782 425.101 334.238 425.151 333.492 425.151C332.746 425.151 332.081 424.768 331.496 424.002L327.142 418.287L325.297 418.952V423.034ZM336.913 411.846V410.182L339.242 409.88H339.544C340.189 408.368 340.623 407.037 340.844 405.888H342.115V409.88H346.62V411.846H342.115V421.129C342.115 421.815 342.225 422.309 342.447 422.611C342.689 422.913 343.092 423.065 343.657 423.065C344.221 423.065 344.977 422.873 345.925 422.49L346.923 424.214C345.774 424.94 344.544 425.302 343.233 425.302C341.923 425.302 340.975 424.96 340.391 424.274C339.826 423.589 339.544 422.702 339.544 421.613V411.846H336.913ZM367.052 425V423.034H369.381V415.384C369.381 414.214 369.23 413.337 368.927 412.753C368.625 412.148 367.929 411.846 366.841 411.846C365.772 411.846 364.29 412.35 362.395 413.358V423.034H364.724V425H357.497V423.034H359.825V411.846H357.497V409.88H361.821L362.123 411.241C364.159 410.132 365.984 409.578 367.597 409.578C369.23 409.578 370.399 410.162 371.105 411.332C373.181 410.162 375.036 409.578 376.669 409.578C378.302 409.578 379.441 410.092 380.086 411.12C380.751 412.148 381.084 413.569 381.084 415.384V423.186H383.563V424.456C382.817 424.919 381.951 425.151 380.963 425.151C379.995 425.151 379.34 424.99 378.997 424.667C378.675 424.325 378.513 423.78 378.513 423.034V415.384C378.513 414.214 378.362 413.337 378.06 412.753C377.757 412.148 377.082 411.846 376.034 411.846C375.005 411.846 373.584 412.299 371.77 413.206C371.891 413.872 371.951 414.597 371.951 415.384V423.034H374.582V425H367.052ZM385.094 411.846V409.88H389.992V423.034H392.623V425H385.063V423.034H387.422V411.846H385.094ZM388.632 407.189C388.188 407.189 387.825 407.027 387.543 406.705C387.261 406.382 387.12 405.999 387.12 405.556C387.12 405.092 387.271 404.689 387.573 404.346C387.896 404.003 388.279 403.832 388.722 403.832C389.166 403.832 389.529 403.993 389.811 404.316C390.093 404.638 390.234 405.032 390.234 405.495C390.234 405.939 390.073 406.332 389.751 406.675C389.448 407.017 389.075 407.189 388.632 407.189ZM403.372 422.702C404.924 422.883 406.113 423.347 406.94 424.093C407.787 424.819 408.21 425.816 408.21 427.087C408.21 428.377 407.524 429.476 406.154 430.383C404.803 431.31 402.868 431.774 400.348 431.774C398.533 431.774 397.122 431.34 396.114 430.473C395.106 429.627 394.602 428.498 394.602 427.087C394.602 425.696 395.338 424.587 396.809 423.76C395.418 423.337 394.723 422.551 394.723 421.401C394.723 420.252 395.348 419.466 396.598 419.043C395.469 418.035 394.904 416.724 394.904 415.112C394.904 413.479 395.428 412.148 396.477 411.12C397.545 410.092 399.037 409.578 400.952 409.578C402.142 409.578 403.2 409.799 404.128 410.243H409.208V412.42H406.365C406.789 413.206 407 414.073 407 415.021C407 416.593 406.466 417.894 405.398 418.922C404.349 419.95 402.868 420.464 400.952 420.464H398.352C397.646 420.464 397.293 420.736 397.293 421.28C397.293 421.724 397.646 421.996 398.352 422.097L403.372 422.702ZM400.952 411.846C399.864 411.846 399.007 412.148 398.382 412.753C397.777 413.358 397.475 414.124 397.475 415.051C397.475 415.958 397.777 416.714 398.382 417.319C399.007 417.904 399.864 418.196 400.952 418.196C402.041 418.196 402.888 417.904 403.492 417.319C404.117 416.714 404.43 415.958 404.43 415.051C404.43 414.124 404.117 413.358 403.492 412.753C402.888 412.148 402.041 411.846 400.952 411.846ZM399.652 424.546C398.946 424.708 398.352 425.05 397.868 425.575C397.404 426.099 397.172 426.663 397.172 427.268C397.172 427.893 397.455 428.417 398.019 428.84C398.584 429.284 399.36 429.506 400.348 429.506C401.96 429.506 403.24 429.254 404.188 428.75C405.156 428.266 405.64 427.661 405.64 426.935C405.64 425.806 404.884 425.151 403.372 424.97L399.652 424.546Z" fill="#140005"/>
</svg>
