<?xml version="1.0" encoding="UTF-8"?>
<svg id="Layer_2" data-name="Layer 2" xmlns="http://www.w3.org/2000/svg" viewBox="0 0 19.24 89.76">
  <defs>
    <style>
      .cls-1 {
        fill: #fff0f5;
      }
    </style>
  </defs>
  <g id="Layer_1-2" data-name="Layer 1">
    <g>
      <g>
        <g>
          <path class="cls-1" d="M10.49,25.25c-.43-.33-.64-.85-.64-1.57s.2-1.25.61-1.6c.41-.34.9-.52,1.48-.52.91,0,1.63.43,2.15,1.28s.78,2.22.78,4.1v4.92h-2.46v-1.38h1.02s0-2.64,0-2.64h-2.09s0,.94,0,.94h.72v1.38h-2.88v-1.38h.72s0-.94,0-.94h-1.99s0,1.1,0,1.1h-1.44v-3.83h1.44v1.16s5.51,0,5.51,0c-.03-1.2-.16-2.04-.39-2.51s-.57-.71-1.04-.71-.7.2-.7.61c0,.38.26.56.77.56v1.5c-.62,0-1.14-.16-1.57-.49Z"/>
          <path class="cls-1" d="M14.15,32.46h1.32v2.48h-7.68s0,1.04,0,1.04h-1.32v-3.54h1.32v.94s6.36,0,6.36,0v-.92Z"/>
          <path class="cls-1" d="M11.15,36.78h1.32v2.48h-4.68s0,1.04,0,1.04h-1.32v-3.54h1.32v.94s3.36,0,3.36,0v-.92ZM13.05,38.48c0-.25.09-.45.26-.61.18-.16.39-.23.64-.23s.46.08.64.25c.18.17.27.38.27.63s-.09.45-.26.61c-.18.15-.39.23-.64.23s-.46-.08-.64-.25c-.18-.17-.27-.38-.27-.62Z"/>
          <path class="cls-1" d="M5.18,41.83h6s0-.98,0-.98h1.28v2.17s-.68.19-.68.19c.52.4.78.93.78,1.6,0,.82-.29,1.44-.87,1.88s-1.32.66-2.23.66-1.66-.25-2.25-.76c-.59-.51-.89-1.24-.89-2.19,0-.27.02-.61.07-1.01h-1.19s0,.74,0,.74h-1.32v-3.23h1.3v.92ZM9.41,45.79c.5,0,.91-.1,1.23-.31.32-.2.48-.49.48-.85s-.19-.66-.56-.89c-.38-.24-.83-.35-1.36-.35h-1.24c-.14.31-.2.62-.2.92,0,.45.15.81.45,1.07.3.27.7.4,1.2.4Z"/>
          <path class="cls-1" d="M6.35,54.88l.12-2.46v-1.24h1.44v1.06s5.51,0,5.51,0c-.03-1.2-.16-2.04-.39-2.51s-.57-.71-1.04-.71-.7.2-.7.61c0,.38.26.56.77.56v1.5c-.62,0-1.14-.16-1.57-.49-.43-.33-.64-.85-.64-1.57s.2-1.25.61-1.6c.41-.34.9-.52,1.48-.52.91,0,1.63.43,2.15,1.28s.78,2.22.78,4.1v.54c0,1.7-.41,3.01-1.23,3.91-.82.9-1.93,1.35-3.33,1.35s-2.42-.4-3.14-1.21c-.54-.62-.82-1.49-.82-2.6ZM7.86,53.8c-.05.54-.07.96-.07,1.26s.07.59.22.89c.15.3.35.53.59.69.47.29,1.04.43,1.7.43.99,0,1.76-.28,2.3-.83.54-.56.82-1.37.82-2.44h-5.57Z"/>
          <path class="cls-1" d="M9.51,65.15h-.64v-4.06c-.32.02-.58.16-.79.4s-.31.53-.31.86.02.61.07.83.09.39.13.48c.04.09.11.23.22.41l.16.29-1.21.62c-.54-.66-.8-1.47-.8-2.45s.29-1.72.88-2.24c.59-.52,1.33-.77,2.24-.77s1.65.26,2.24.77c.59.52.88,1.22.88,2.11s-.29,1.57-.86,2.03c-.58.46-1.31.7-2.21.7ZM10.86,63.26c.19-.19.29-.46.29-.8s-.1-.64-.29-.86c-.2-.23-.45-.38-.76-.45v2.45c.32-.03.58-.14.77-.33Z"/>
          <path class="cls-1" d="M8.55,65.99v1.38h-.7c-.04.22-.06.49-.06.79,0,.62.1.94.31.94.08,0,.23-.19.46-.56l.86-1.44c.22-.35.44-.61.68-.78.24-.17.54-.25.9-.25.5,0,.88.21,1.16.64s.41,1,.41,1.73-.16,1.42-.49,2.08h-1.79v-1.38h.74c.06-.23.1-.49.1-.78,0-.48-.09-.72-.26-.72-.02,0-.04,0-.05.02-.01.01-.02.02-.04.03-.01,0-.02.02-.04.04-.01.02-.02.03-.03.05,0,.02-.02.04-.04.06-.02.02-.03.05-.04.07-.01.02-.03.05-.05.08s-.04.07-.06.1l-.98,1.62c-.4.65-.88.97-1.43.97s-.99-.23-1.3-.68-.46-1.1-.46-1.92.15-1.51.46-2.06h1.74Z"/>
          <path class="cls-1" d="M11.15,71.63h1.32v2.48h-4.68s0,1.04,0,1.04h-1.32v-3.54h1.32v.94s3.36,0,3.36,0v-.92ZM13.05,73.33c0-.25.09-.45.26-.61.18-.16.39-.23.64-.23s.46.08.64.25c.18.17.27.38.27.63s-.09.45-.26.61c-.18.15-.39.23-.64.23s-.46-.08-.64-.25c-.18-.17-.27-.38-.27-.62Z"/>
          <path class="cls-1" d="M8.94,76.67c.38-.41.87-.61,1.49-.61s1.13.23,1.54.68c.41.46.61,1.09.61,1.9,0,.51-.09.94-.26,1.3v1.98h-1.4v-.79c-.19.06-.36.1-.49.1-.62,0-1.14-.23-1.55-.68-.41-.46-.61-1.09-.61-1.9,0-.3.03-.58.1-.86,0-.06-.04-.12-.09-.17-.05-.05-.11-.08-.19-.08s-.12.03-.16.08c-.06.09-.11.26-.13.52l-.25,1.78c-.08.54-.28.98-.59,1.3-.32.32-.74.48-1.28.48s-.99-.29-1.35-.88-.54-1.32-.54-2.22.16-1.56.49-2c.33-.44.74-.66,1.25-.66.26,0,.49.06.71.17s.38.29.47.53c.18-.43.53-.65,1.06-.65s.92.24,1.17.71ZM5.59,77.47c-.25,0-.37.34-.37,1.03,0,.47.04.86.13,1.16.09.3.22.45.4.45.21,0,.33-.18.37-.54l.17-1.48c-.03-.17-.12-.31-.25-.44-.14-.12-.28-.19-.44-.19ZM10.95,77.88c-.13-.18-.31-.26-.52-.26s-.39.09-.52.26-.2.43-.2.76.07.58.2.76c.13.18.31.26.52.26s.39-.09.52-.26c.13-.18.2-.43.2-.76s-.07-.58-.2-.76Z"/>
          <path class="cls-1" d="M7.79,84.92v1.04h-1.32v-3.53h1.32v.92s3.36,0,3.36,0v-.92h1.32v2.12s-.59.18-.59.18c.47.75.71,1.43.71,2.04,0,.75-.22,1.27-.66,1.56-.44.29-1.05.43-1.82.43h-2.38s0,.98,0,.98h-1.04c-.18-.34-.28-.76-.28-1.25s.11-.83.32-1.01c.22-.19.57-.28,1.06-.28h2.32c.35,0,.61-.05.79-.14s.26-.32.26-.67-.24-.84-.72-1.48h-2.64Z"/>
        </g>
        <g>
          <path class="cls-1" d="M10.49,25.25c-.43-.33-.64-.85-.64-1.57s.2-1.25.61-1.6c.41-.34.9-.52,1.48-.52.91,0,1.63.43,2.15,1.28s.78,2.22.78,4.1v4.92h-2.46v-1.38h1.02s0-2.64,0-2.64h-2.09s0,.94,0,.94h.72v1.38h-2.88v-1.38h.72s0-.94,0-.94h-1.99s0,1.1,0,1.1h-1.44v-3.83h1.44v1.16s5.51,0,5.51,0c-.03-1.2-.16-2.04-.39-2.51s-.57-.71-1.04-.71-.7.2-.7.61c0,.38.26.56.77.56v1.5c-.62,0-1.14-.16-1.57-.49Z"/>
          <path class="cls-1" d="M14.15,32.46h1.32v2.48h-7.68s0,1.04,0,1.04h-1.32v-3.54h1.32v.94s6.36,0,6.36,0v-.92Z"/>
          <path class="cls-1" d="M11.15,36.78h1.32v2.48h-4.68s0,1.04,0,1.04h-1.32v-3.54h1.32v.94s3.36,0,3.36,0v-.92ZM13.05,38.48c0-.25.09-.45.26-.61.18-.16.39-.23.64-.23s.46.08.64.25c.18.17.27.38.27.63s-.09.45-.26.61c-.18.15-.39.23-.64.23s-.46-.08-.64-.25c-.18-.17-.27-.38-.27-.62Z"/>
          <path class="cls-1" d="M5.18,41.83h6s0-.98,0-.98h1.28v2.17s-.68.19-.68.19c.52.4.78.93.78,1.6,0,.82-.29,1.44-.87,1.88s-1.32.66-2.23.66-1.66-.25-2.25-.76c-.59-.51-.89-1.24-.89-2.19,0-.27.02-.61.07-1.01h-1.19s0,.74,0,.74h-1.32v-3.23h1.3v.92ZM9.41,45.79c.5,0,.91-.1,1.23-.31.32-.2.48-.49.48-.85s-.19-.66-.56-.89c-.38-.24-.83-.35-1.36-.35h-1.24c-.14.31-.2.62-.2.92,0,.45.15.81.45,1.07.3.27.7.4,1.2.4Z"/>
          <path class="cls-1" d="M6.35,54.88l.12-2.46v-1.24h1.44v1.06s5.51,0,5.51,0c-.03-1.2-.16-2.04-.39-2.51s-.57-.71-1.04-.71-.7.2-.7.61c0,.38.26.56.77.56v1.5c-.62,0-1.14-.16-1.57-.49-.43-.33-.64-.85-.64-1.57s.2-1.25.61-1.6c.41-.34.9-.52,1.48-.52.91,0,1.63.43,2.15,1.28s.78,2.22.78,4.1v.54c0,1.7-.41,3.01-1.23,3.91-.82.9-1.93,1.35-3.33,1.35s-2.42-.4-3.14-1.21c-.54-.62-.82-1.49-.82-2.6ZM7.86,53.8c-.05.54-.07.96-.07,1.26s.07.59.22.89c.15.3.35.53.59.69.47.29,1.04.43,1.7.43.99,0,1.76-.28,2.3-.83.54-.56.82-1.37.82-2.44h-5.57Z"/>
          <path class="cls-1" d="M9.51,65.15h-.64v-4.06c-.32.02-.58.16-.79.4s-.31.53-.31.86.02.61.07.83.09.39.13.48c.04.09.11.23.22.41l.16.29-1.21.62c-.54-.66-.8-1.47-.8-2.45s.29-1.72.88-2.24c.59-.52,1.33-.77,2.24-.77s1.65.26,2.24.77c.59.52.88,1.22.88,2.11s-.29,1.57-.86,2.03c-.58.46-1.31.7-2.21.7ZM10.86,63.26c.19-.19.29-.46.29-.8s-.1-.64-.29-.86c-.2-.23-.45-.38-.76-.45v2.45c.32-.03.58-.14.77-.33Z"/>
          <path class="cls-1" d="M8.55,65.99v1.38h-.7c-.04.22-.06.49-.06.79,0,.62.1.94.31.94.08,0,.23-.19.46-.56l.86-1.44c.22-.35.44-.61.68-.78.24-.17.54-.25.9-.25.5,0,.88.21,1.16.64s.41,1,.41,1.73-.16,1.42-.49,2.08h-1.79v-1.38h.74c.06-.23.1-.49.1-.78,0-.48-.09-.72-.26-.72-.02,0-.04,0-.05.02-.01.01-.02.02-.04.03-.01,0-.02.02-.04.04-.01.02-.02.03-.03.05,0,.02-.02.04-.04.06-.02.02-.03.05-.04.07-.01.02-.03.05-.05.08s-.04.07-.06.1l-.98,1.62c-.4.65-.88.97-1.43.97s-.99-.23-1.3-.68-.46-1.1-.46-1.92.15-1.51.46-2.06h1.74Z"/>
          <path class="cls-1" d="M11.15,71.63h1.32v2.48h-4.68s0,1.04,0,1.04h-1.32v-3.54h1.32v.94s3.36,0,3.36,0v-.92ZM13.05,73.33c0-.25.09-.45.26-.61.18-.16.39-.23.64-.23s.46.08.64.25c.18.17.27.38.27.63s-.09.45-.26.61c-.18.15-.39.23-.64.23s-.46-.08-.64-.25c-.18-.17-.27-.38-.27-.62Z"/>
          <path class="cls-1" d="M8.94,76.67c.38-.41.87-.61,1.49-.61s1.13.23,1.54.68c.41.46.61,1.09.61,1.9,0,.51-.09.94-.26,1.3v1.98h-1.4v-.79c-.19.06-.36.1-.49.1-.62,0-1.14-.23-1.55-.68-.41-.46-.61-1.09-.61-1.9,0-.3.03-.58.1-.86,0-.06-.04-.12-.09-.17-.05-.05-.11-.08-.19-.08s-.12.03-.16.08c-.06.09-.11.26-.13.52l-.25,1.78c-.08.54-.28.98-.59,1.3-.32.32-.74.48-1.28.48s-.99-.29-1.35-.88-.54-1.32-.54-2.22.16-1.56.49-2c.33-.44.74-.66,1.25-.66.26,0,.49.06.71.17s.38.29.47.53c.18-.43.53-.65,1.06-.65s.92.24,1.17.71ZM5.59,77.47c-.25,0-.37.34-.37,1.03,0,.47.04.86.13,1.16.09.3.22.45.4.45.21,0,.33-.18.37-.54l.17-1.48c-.03-.17-.12-.31-.25-.44-.14-.12-.28-.19-.44-.19ZM10.95,77.88c-.13-.18-.31-.26-.52-.26s-.39.09-.52.26-.2.43-.2.76.07.58.2.76c.13.18.31.26.52.26s.39-.09.52-.26c.13-.18.2-.43.2-.76s-.07-.58-.2-.76Z"/>
          <path class="cls-1" d="M7.79,84.92v1.04h-1.32v-3.53h1.32v.92s3.36,0,3.36,0v-.92h1.32v2.12s-.59.18-.59.18c.47.75.71,1.43.71,2.04,0,.75-.22,1.27-.66,1.56-.44.29-1.05.43-1.82.43h-2.38s0,.98,0,.98h-1.04c-.18-.34-.28-.76-.28-1.25s.11-.83.32-1.01c.22-.19.57-.28,1.06-.28h2.32c.35,0,.61-.05.79-.14s.26-.32.26-.67-.24-.84-.72-1.48h-2.64Z"/>
        </g>
      </g>
      <g id="Artwork_2" data-name="Artwork 2">
        <g>
          <path class="cls-1" d="M0,14.22c0-.79.13-1.34.26-1.88.14-.57.27-1.12.27-2s-.13-1.43-.27-2C.13,7.8,0,7.25,0,6.46c0-1.01.3-1.92.83-2.58.57-.7,1.39-1.08,2.31-1.08,1.95,0,2.81,1.14,3.33,1.81.09.12.17.23.24.3.64.72,1.4,1.15,2.14,1.56,1.32.74,2.69,1.5,2.69,3.87s-1.37,3.13-2.69,3.87c-.74.41-1.49.84-2.14,1.56-.07.08-.15.18-.24.3-.51.68-1.37,1.81-3.33,1.81-.92,0-1.74-.38-2.31-1.08C.3,16.14,0,15.23,0,14.22"/>
          <path class="cls-1" d="M6.83,2.99c0-.59.24-1.17.7-1.68.54-.59,1.32-1.02,2.2-1.21.88-.19,1.77-.11,2.5.21.79.35,1.31.94,1.46,1.67.03.15.05.29.05.44,0,.59-.24,1.17-.7,1.68-.54.59-1.32,1.02-2.2,1.21-.88.19-1.77.11-2.5-.21-.79-.35-1.31-.94-1.46-1.67-.03-.15-.05-.29-.05-.44"/>
          <path class="cls-1" d="M11.49,7.26c0-.51.18-1.03.52-1.49.3-.41.72-.77,1.22-1.05.51-.28,1.08-.47,1.69-.56,1-.15,1.98-.01,2.78.39.85.43,1.39,1.11,1.52,1.91.02.12.03.23.03.35,0,.51-.18,1.03-.52,1.49-.3.41-.72.77-1.22,1.05-.51.28-1.08.47-1.69.56-1,.15-1.98.01-2.78-.39-.85-.43-1.39-1.11-1.52-1.91-.02-.12-.03-.23-.03-.35"/>
          <path class="cls-1" d="M6.83,17.69c0-.15.02-.3.05-.44.15-.73.67-1.32,1.46-1.67.73-.32,1.62-.4,2.5-.21.88.19,1.66.62,2.2,1.21.46.51.7,1.09.7,1.68,0,.15-.02.3-.05.44-.15.73-.67,1.32-1.46,1.67-.73.32-1.62.4-2.5.21-.88-.19-1.66-.62-2.2-1.21-.46-.51-.7-1.09-.7-1.68"/>
          <path class="cls-1" d="M11.49,13.41c0-.11,0-.23.03-.35.12-.8.66-1.48,1.52-1.91.79-.4,1.78-.54,2.78-.39.61.09,1.18.28,1.69.56.5.28.92.64,1.22,1.05.34.46.52.98.52,1.49,0,.12,0,.23-.03.35-.12.8-.66,1.48-1.52,1.91-.79.4-1.78.54-2.78.39-.61-.09-1.18-.28-1.69-.56-.5-.28-.92-.64-1.22-1.05-.34-.46-.52-.98-.52-1.49h0Z"/>
        </g>
      </g>
    </g>
  </g>
</svg>