<?xml version="1.0" encoding="UTF-8"?>
<svg id="Layer_2" data-name="Layer 2" xmlns="http://www.w3.org/2000/svg" xmlns:xlink="http://www.w3.org/1999/xlink" viewBox="0 0 88.91 19.24">
  <defs>
    <style>
      .cls-1 {
        fill: url(#pri_sec-9);
      }

      .cls-2 {
        fill: url(#pri_sec-10);
      }

      .cls-3 {
        fill: url(#pri_sec-6);
      }

      .cls-4 {
        fill: url(#pri_sec-7);
      }

      .cls-5 {
        fill: url(#pri_sec-15);
      }

      .cls-6 {
        fill: url(#pri_sec-2);
      }

      .cls-7 {
        fill: url(#pri_sec-13);
      }

      .cls-8 {
        fill: url(#pri_sec-14);
      }

      .cls-9 {
        fill: #ff0080;
      }

      .cls-10 {
        fill: url(#pri_sec-4);
      }

      .cls-11 {
        fill: url(#pri_sec-3);
      }

      .cls-12 {
        fill: url(#pri_sec-8);
      }

      .cls-13 {
        fill: url(#pri_sec-5);
      }

      .cls-14 {
        fill: url(#pri_sec-12);
      }

      .cls-15 {
        fill: url(#pri_sec-11);
      }

      .cls-16 {
        fill: url(#pri_sec);
      }
    </style>
    <linearGradient id="pri_sec" data-name="pri&amp;amp;sec" x1="87.53" y1="8.29" x2="1.24" y2="9.68" gradientUnits="userSpaceOnUse">
      <stop offset="0" stop-color="#ff8ac4"/>
      <stop offset="1" stop-color="#ff0080"/>
    </linearGradient>
    <linearGradient id="pri_sec-2" data-name="pri&amp;amp;sec" x1="87.53" y1="8.09" x2="1.24" y2="9.48" xlink:href="#pri_sec"/>
    <linearGradient id="pri_sec-3" data-name="pri&amp;amp;sec" x1="87.54" y1="8.47" x2="1.25" y2="9.86" xlink:href="#pri_sec"/>
    <linearGradient id="pri_sec-4" data-name="pri&amp;amp;sec" x1="87.58" y1="10.99" x2="1.29" y2="12.39" xlink:href="#pri_sec"/>
    <linearGradient id="pri_sec-5" data-name="pri&amp;amp;sec" x1="87.54" y1="8.76" x2="1.25" y2="10.15" xlink:href="#pri_sec"/>
    <linearGradient id="pri_sec-6" data-name="pri&amp;amp;sec" x1="87.56" y1="10.04" x2="1.27" y2="11.43" xlink:href="#pri_sec"/>
    <linearGradient id="pri_sec-7" data-name="pri&amp;amp;sec" x1="87.56" y1="10.12" x2="1.27" y2="11.52" xlink:href="#pri_sec"/>
    <linearGradient id="pri_sec-8" data-name="pri&amp;amp;sec" x1="87.55" y1="9.03" x2="1.26" y2="10.42" xlink:href="#pri_sec"/>
    <linearGradient id="pri_sec-9" data-name="pri&amp;amp;sec" x1="87.59" y1="11.58" x2="1.3" y2="12.98" xlink:href="#pri_sec"/>
    <linearGradient id="pri_sec-10" data-name="pri&amp;amp;sec" x1="87.57" y1="10.41" x2="1.28" y2="11.8" xlink:href="#pri_sec"/>
    <linearGradient id="pri_sec-11" data-name="pri&amp;amp;sec" x1="87.6" y1="12.26" x2="1.31" y2="13.65" xlink:href="#pri_sec"/>
    <linearGradient id="pri_sec-12" data-name="pri&amp;amp;sec" x1="87.52" y1="7.59" x2="1.23" y2="8.98" xlink:href="#pri_sec"/>
    <linearGradient id="pri_sec-13" data-name="pri&amp;amp;sec" x1="87.44" y1="2.58" x2="1.15" y2="3.97" xlink:href="#pri_sec"/>
    <linearGradient id="pri_sec-14" data-name="pri&amp;amp;sec" x1="87.53" y1="7.84" x2="1.24" y2="9.23" xlink:href="#pri_sec"/>
    <linearGradient id="pri_sec-15" data-name="pri&amp;amp;sec" x1="87.44" y1="2.68" x2="1.15" y2="4.08" xlink:href="#pri_sec"/>
  </defs>
  <g id="Layer_1-2" data-name="Layer 1">
    <g>
      <g>
        <g>
          <path class="cls-9" d="M25.25,9.43c-.33.43-.85.64-1.57.64s-1.25-.2-1.6-.61c-.34-.41-.52-.9-.52-1.48,0-.91.43-1.63,1.28-2.15s2.22-.78,4.1-.78h4.92v2.46h-1.38v-1.02h-2.64v2.09h.94v-.72h1.38v2.88h-1.38v-.72h-.94v1.99h1.1v1.44h-3.83v-1.44h1.16v-5.51c-1.2.03-2.04.16-2.51.39s-.71.57-.71,1.04.2.7.61.7c.38,0,.56-.26.56-.77h1.5c0,.62-.16,1.14-.49,1.57Z"/>
          <path class="cls-9" d="M32.17,5.77v-1.32h2.48v7.68h1.04v1.32h-3.54v-1.32h.94v-6.36h-.92Z"/>
          <path class="cls-9" d="M36.49,8.77v-1.32h2.48v4.68h1.04v1.32h-3.54v-1.32h.94v-3.36h-.92ZM38.2,6.86c-.25,0-.45-.09-.61-.26-.16-.18-.23-.39-.23-.64s.08-.46.25-.64c.17-.18.38-.27.63-.27s.45.09.61.26c.15.18.23.39.23.64s-.08.46-.25.64c-.17.18-.38.27-.62.27Z"/>
          <path class="cls-9" d="M41.54,14.74v-6h-.98v-1.28h2.17l.19.68c.4-.52.93-.78,1.6-.78.82,0,1.44.29,1.88.87s.66,1.32.66,2.23-.25,1.66-.76,2.25c-.51.59-1.24.89-2.19.89-.27,0-.61-.02-1.01-.07v1.19h.74v1.32h-3.23v-1.3h.92ZM45.5,10.51c0-.5-.1-.91-.31-1.23-.2-.32-.49-.48-.85-.48s-.66.19-.89.56c-.24.38-.35.83-.35,1.36v1.24c.31.14.62.2.92.2.45,0,.81-.15,1.07-.45.27-.3.4-.7.4-1.2Z"/>
          <path class="cls-9" d="M54.31,13.57l-2.46-.12h-1.24v-1.44h1.06v-5.51c-1.2.03-2.04.16-2.51.39s-.71.57-.71,1.04.2.7.61.7c.38,0,.56-.26.56-.77h1.5c0,.62-.16,1.14-.49,1.57-.33.43-.85.64-1.57.64s-1.25-.2-1.6-.61c-.34-.41-.52-.9-.52-1.48,0-.91.43-1.63,1.28-2.15s2.22-.78,4.1-.78h.54c1.7,0,3.01.41,3.91,1.23.9.82,1.35,1.93,1.35,3.33s-.4,2.42-1.21,3.14c-.62.54-1.49.82-2.6.82ZM53.23,12.06c.54.05.96.07,1.26.07s.59-.07.89-.22c.3-.15.53-.35.69-.59.29-.47.43-1.04.43-1.7,0-.99-.28-1.76-.83-2.3-.56-.54-1.37-.82-2.44-.82v5.57Z"/>
          <path class="cls-9" d="M64.58,10.4v.64h-4.06c.02.32.16.58.4.79s.53.31.86.31.61-.02.83-.07.39-.09.48-.13c.09-.04.23-.11.41-.22l.29-.16.62,1.21c-.66.54-1.47.8-2.45.8s-1.72-.29-2.24-.88c-.52-.59-.77-1.33-.77-2.24s.26-1.65.77-2.24c.52-.59,1.22-.88,2.11-.88s1.57.29,2.03.86c.46.58.7,1.31.7,2.21ZM62.69,9.06c-.19-.19-.46-.29-.8-.29s-.64.1-.86.29c-.23.2-.38.45-.45.76h2.45c-.03-.32-.14-.58-.33-.77Z"/>
          <path class="cls-9" d="M65.42,11.36h1.38v.7c.22.04.49.06.79.06.62,0,.94-.1.94-.31,0-.08-.19-.23-.56-.46l-1.44-.86c-.35-.22-.61-.44-.78-.68-.17-.24-.25-.54-.25-.9,0-.5.21-.88.64-1.16s1-.41,1.73-.41,1.42.16,2.08.49v1.79h-1.38v-.74c-.23-.06-.49-.1-.78-.1-.48,0-.72.09-.72.26,0,.02,0,.04.02.05.01.01.02.02.03.04,0,.01.02.02.04.04.02.01.03.02.05.03.02,0,.04.02.06.04.02.02.05.03.07.04.02.01.05.03.08.05s.07.04.1.06l1.62.98c.65.4.97.88.97,1.43s-.23.99-.68,1.3-1.1.46-1.92.46-1.51-.15-2.06-.46v-1.74Z"/>
          <path class="cls-9" d="M71.06,8.77v-1.32h2.48v4.68h1.04v1.32h-3.54v-1.32h.94v-3.36h-.92ZM72.77,6.86c-.25,0-.45-.09-.61-.26-.16-.18-.23-.39-.23-.64s.08-.46.25-.64c.17-.18.38-.27.63-.27s.45.09.61.26c.15.18.23.39.23.64s-.08.46-.25.64c-.17.18-.38.27-.62.27Z"/>
          <path class="cls-9" d="M76.1,10.98c-.41-.38-.61-.87-.61-1.49s.23-1.13.68-1.54c.46-.41,1.09-.61,1.9-.61.51,0,.94.09,1.3.26h1.98v1.4h-.79c.06.19.1.36.1.49,0,.62-.23,1.14-.68,1.55-.46.41-1.09.61-1.9.61-.3,0-.58-.03-.86-.1-.06,0-.12.04-.17.09-.05.05-.08.11-.08.19s.03.12.08.16c.09.06.26.11.52.13l1.78.25c.54.08.98.28,1.3.59.32.32.48.74.48,1.28s-.29.99-.88,1.35-1.32.54-2.22.54-1.56-.16-2-.49c-.44-.33-.66-.74-.66-1.25,0-.26.06-.49.17-.71s.29-.38.53-.47c-.43-.18-.65-.53-.65-1.06s.24-.92.71-1.17ZM76.91,14.33c0,.25.34.37,1.03.37.47,0,.86-.04,1.16-.13.3-.09.45-.22.45-.4,0-.21-.18-.33-.54-.37l-1.48-.17c-.17.03-.31.12-.44.25-.12.14-.19.28-.19.44ZM77.32,8.97c-.18.13-.26.31-.26.52s.09.39.26.52.43.2.76.2.58-.07.76-.2c.18-.13.26-.31.26-.52s-.09-.39-.26-.52c-.18-.13-.43-.2-.76-.2s-.58.07-.76.2Z"/>
          <path class="cls-9" d="M84.07,12.13h1.04v1.32h-3.53v-1.32h.92v-3.36h-.92v-1.32h2.12l.18.59c.75-.47,1.43-.71,2.04-.71.75,0,1.27.22,1.56.66.29.44.43,1.05.43,1.82v2.38h.98v1.04c-.34.18-.76.28-1.25.28s-.83-.11-1.01-.32c-.19-.22-.28-.57-.28-1.06v-2.32c0-.35-.05-.61-.14-.79s-.32-.26-.67-.26-.84.24-1.48.72v2.64Z"/>
        </g>
        <g>
          <path class="cls-16" d="M25.25,9.43c-.33.43-.85.64-1.57.64s-1.25-.2-1.6-.61c-.34-.41-.52-.9-.52-1.48,0-.91.43-1.63,1.28-2.15s2.22-.78,4.1-.78h4.92v2.46h-1.38v-1.02h-2.64v2.09h.94v-.72h1.38v2.88h-1.38v-.72h-.94v1.99h1.1v1.44h-3.83v-1.44h1.16v-5.51c-1.2.03-2.04.16-2.51.39s-.71.57-.71,1.04.2.7.61.7c.38,0,.56-.26.56-.77h1.5c0,.62-.16,1.14-.49,1.57Z"/>
          <path class="cls-6" d="M32.17,5.77v-1.32h2.48v7.68h1.04v1.32h-3.54v-1.32h.94v-6.36h-.92Z"/>
          <path class="cls-11" d="M36.49,8.77v-1.32h2.48v4.68h1.04v1.32h-3.54v-1.32h.94v-3.36h-.92ZM38.2,6.86c-.25,0-.45-.09-.61-.26-.16-.18-.23-.39-.23-.64s.08-.46.25-.64c.17-.18.38-.27.63-.27s.45.09.61.26c.15.18.23.39.23.64s-.08.46-.25.64c-.17.18-.38.27-.62.27Z"/>
          <path class="cls-10" d="M41.54,14.74v-6h-.98v-1.28h2.17l.19.68c.4-.52.93-.78,1.6-.78.82,0,1.44.29,1.88.87s.66,1.32.66,2.23-.25,1.66-.76,2.25c-.51.59-1.24.89-2.19.89-.27,0-.61-.02-1.01-.07v1.19h.74v1.32h-3.23v-1.3h.92ZM45.5,10.51c0-.5-.1-.91-.31-1.23-.2-.32-.49-.48-.85-.48s-.66.19-.89.56c-.24.38-.35.83-.35,1.36v1.24c.31.14.62.2.92.2.45,0,.81-.15,1.07-.45.27-.3.4-.7.4-1.2Z"/>
          <path class="cls-13" d="M54.31,13.57l-2.46-.12h-1.24v-1.44h1.06v-5.51c-1.2.03-2.04.16-2.51.39s-.71.57-.71,1.04.2.7.61.7c.38,0,.56-.26.56-.77h1.5c0,.62-.16,1.14-.49,1.57-.33.43-.85.64-1.57.64s-1.25-.2-1.6-.61c-.34-.41-.52-.9-.52-1.48,0-.91.43-1.63,1.28-2.15s2.22-.78,4.1-.78h.54c1.7,0,3.01.41,3.91,1.23.9.82,1.35,1.93,1.35,3.33s-.4,2.42-1.21,3.14c-.62.54-1.49.82-2.6.82ZM53.23,12.06c.54.05.96.07,1.26.07s.59-.07.89-.22c.3-.15.53-.35.69-.59.29-.47.43-1.04.43-1.7,0-.99-.28-1.76-.83-2.3-.56-.54-1.37-.82-2.44-.82v5.57Z"/>
          <path class="cls-3" d="M64.58,10.4v.64h-4.06c.02.32.16.58.4.79s.53.31.86.31.61-.02.83-.07.39-.09.48-.13c.09-.04.23-.11.41-.22l.29-.16.62,1.21c-.66.54-1.47.8-2.45.8s-1.72-.29-2.24-.88c-.52-.59-.77-1.33-.77-2.24s.26-1.65.77-2.24c.52-.59,1.22-.88,2.11-.88s1.57.29,2.03.86c.46.58.7,1.31.7,2.21ZM62.69,9.06c-.19-.19-.46-.29-.8-.29s-.64.1-.86.29c-.23.2-.38.45-.45.76h2.45c-.03-.32-.14-.58-.33-.77Z"/>
          <path class="cls-4" d="M65.42,11.36h1.38v.7c.22.04.49.06.79.06.62,0,.94-.1.94-.31,0-.08-.19-.23-.56-.46l-1.44-.86c-.35-.22-.61-.44-.78-.68-.17-.24-.25-.54-.25-.9,0-.5.21-.88.64-1.16s1-.41,1.73-.41,1.42.16,2.08.49v1.79h-1.38v-.74c-.23-.06-.49-.1-.78-.1-.48,0-.72.09-.72.26,0,.02,0,.04.02.05.01.01.02.02.03.04,0,.01.02.02.04.04.02.01.03.02.05.03.02,0,.04.02.06.04.02.02.05.03.07.04.02.01.05.03.08.05s.07.04.1.06l1.62.98c.65.4.97.88.97,1.43s-.23.99-.68,1.3-1.1.46-1.92.46-1.51-.15-2.06-.46v-1.74Z"/>
          <path class="cls-12" d="M71.06,8.77v-1.32h2.48v4.68h1.04v1.32h-3.54v-1.32h.94v-3.36h-.92ZM72.77,6.86c-.25,0-.45-.09-.61-.26-.16-.18-.23-.39-.23-.64s.08-.46.25-.64c.17-.18.38-.27.63-.27s.45.09.61.26c.15.18.23.39.23.64s-.08.46-.25.64c-.17.18-.38.27-.62.27Z"/>
          <path class="cls-1" d="M76.1,10.98c-.41-.38-.61-.87-.61-1.49s.23-1.13.68-1.54c.46-.41,1.09-.61,1.9-.61.51,0,.94.09,1.3.26h1.98v1.4h-.79c.06.19.1.36.1.49,0,.62-.23,1.14-.68,1.55-.46.41-1.09.61-1.9.61-.3,0-.58-.03-.86-.1-.06,0-.12.04-.17.09-.05.05-.08.11-.08.19s.03.12.08.16c.09.06.26.11.52.13l1.78.25c.54.08.98.28,1.3.59.32.32.48.74.48,1.28s-.29.99-.88,1.35-1.32.54-2.22.54-1.56-.16-2-.49c-.44-.33-.66-.74-.66-1.25,0-.26.06-.49.17-.71s.29-.38.53-.47c-.43-.18-.65-.53-.65-1.06s.24-.92.71-1.17ZM76.91,14.33c0,.25.34.37,1.03.37.47,0,.86-.04,1.16-.13.3-.09.45-.22.45-.4,0-.21-.18-.33-.54-.37l-1.48-.17c-.17.03-.31.12-.44.25-.12.14-.19.28-.19.44ZM77.32,8.97c-.18.13-.26.31-.26.52s.09.39.26.52.43.2.76.2.58-.07.76-.2c.18-.13.26-.31.26-.52s-.09-.39-.26-.52c-.18-.13-.43-.2-.76-.2s-.58.07-.76.2Z"/>
          <path class="cls-2" d="M84.07,12.13h1.04v1.32h-3.53v-1.32h.92v-3.36h-.92v-1.32h2.12l.18.59c.75-.47,1.43-.71,2.04-.71.75,0,1.27.22,1.56.66.29.44.43,1.05.43,1.82v2.38h.98v1.04c-.34.18-.76.28-1.25.28s-.83-.11-1.01-.32c-.19-.22-.28-.57-.28-1.06v-2.32c0-.35-.05-.61-.14-.79s-.32-.26-.67-.26-.84.24-1.48.72v2.64Z"/>
        </g>
      </g>
      <g id="Artwork_2" data-name="Artwork 2">
        <g>
          <path class="cls-15" d="M14.22,19.24c-.79,0-1.34-.13-1.88-.26-.57-.14-1.12-.27-2-.27s-1.43.13-2,.27c-.54.13-1.09.26-1.88.26-1.01,0-1.92-.3-2.58-.83-.7-.57-1.08-1.39-1.08-2.31,0-1.95,1.14-2.81,1.81-3.33.12-.09.23-.17.3-.24.72-.64,1.15-1.4,1.56-2.14.74-1.32,1.5-2.69,3.87-2.69s3.13,1.37,3.87,2.69c.41.74.84,1.49,1.56,2.14.08.07.18.15.3.24.68.51,1.81,1.37,1.81,3.33,0,.92-.38,1.74-1.08,2.31-.66.54-1.57.83-2.58.83"/>
          <path class="cls-14" d="M2.99,12.41c-.59,0-1.17-.24-1.68-.7-.59-.54-1.02-1.32-1.21-2.2-.19-.88-.11-1.77.21-2.5.35-.79.94-1.31,1.67-1.46.15-.03.29-.05.44-.05.59,0,1.17.24,1.68.7.59.54,1.02,1.32,1.21,2.2.19.88.11,1.77-.21,2.5-.35.79-.94,1.31-1.67,1.46-.15.03-.29.05-.44.05"/>
          <path class="cls-7" d="M7.26,7.75c-.51,0-1.03-.18-1.49-.52-.41-.3-.77-.72-1.05-1.22-.28-.51-.47-1.08-.56-1.69-.15-1-.01-1.98.39-2.78C4.98.69,5.66.15,6.46.03c.12-.02.23-.03.35-.03.51,0,1.03.18,1.49.52.41.3.77.72,1.05,1.22.28.51.47,1.08.56,1.69.15,1,.01,1.98-.39,2.78-.43.85-1.11,1.39-1.91,1.52-.12.02-.23.03-.35.03"/>
          <path class="cls-8" d="M17.69,12.41c-.15,0-.3-.02-.44-.05-.73-.15-1.32-.67-1.67-1.46-.32-.73-.4-1.62-.21-2.5.19-.88.62-1.66,1.21-2.2.51-.46,1.09-.7,1.68-.7.15,0,.3.02.44.05.73.15,1.32.67,1.67,1.46.32.73.4,1.62.21,2.5-.19.88-.62,1.66-1.21,2.2-.51.46-1.09.7-1.68.7"/>
          <path class="cls-5" d="M13.41,7.75c-.11,0-.23,0-.35-.03-.8-.12-1.48-.66-1.91-1.52-.4-.79-.54-1.78-.39-2.78.09-.61.28-1.18.56-1.69.28-.5.64-.92,1.05-1.22.46-.34.98-.52,1.49-.52.12,0,.23,0,.35.03.8.12,1.48.66,1.91,1.52.4.79.54,1.78.39,2.78-.09.61-.28,1.18-.56,1.69-.28.5-.64.92-1.05,1.22-.46.34-.98.52-1.49.52h0Z"/>
        </g>
      </g>
    </g>
  </g>
</svg>